<?xml version="1.0" encoding="UTF-8" standalone="no"?>
<!-- Generator: Adobe Illustrator 19.0.0, SVG Export Plug-In . SVG Version: 6.00 Build 0)  -->

<svg
   xmlns:dc="http://purl.org/dc/elements/1.1/"
   xmlns:cc="http://creativecommons.org/ns#"
   xmlns:rdf="http://www.w3.org/1999/02/22-rdf-syntax-ns#"
   xmlns:svg="http://www.w3.org/2000/svg"
   xmlns="http://www.w3.org/2000/svg"
   xmlns:sodipodi="http://sodipodi.sourceforge.net/DTD/sodipodi-0.dtd"
   xmlns:inkscape="http://www.inkscape.org/namespaces/inkscape"
   version="1.1"
   id="Capa_1"
   x="0px"
   y="0px"
   viewBox="0 0 60 60"
   style="enable-background:new 0 0 60 60;"
   xml:space="preserve"
   width="512px"
   height="512px"
   sodipodi:docname="hourglass.svg"
   inkscape:version="0.92.3 (2405546, 2018-03-11)"><metadata
   id="metadata3933"><rdf:RDF><cc:Work
       rdf:about=""><dc:format>image/svg+xml</dc:format><dc:type
         rdf:resource="http://purl.org/dc/dcmitype/StillImage" /></cc:Work></rdf:RDF></metadata><defs
   id="defs3931" /><sodipodi:namedview
   pagecolor="#ffffff"
   bordercolor="#666666"
   borderopacity="1"
   objecttolerance="10"
   gridtolerance="10"
   guidetolerance="10"
   inkscape:pageopacity="0"
   inkscape:pageshadow="2"
   inkscape:window-width="1366"
   inkscape:window-height="719"
   id="namedview3929"
   showgrid="false"
   inkscape:zoom="1.0371094"
   inkscape:cx="256"
   inkscape:cy="256"
   inkscape:window-x="0"
   inkscape:window-y="25"
   inkscape:window-maximized="1"
   inkscape:current-layer="Capa_1" />
<g
   id="g3896"
   style="fill:#808080">
	<circle
   cx="30"
   cy="26"
   r="1"
   fill="#666666"
   id="circle3866"
   style="fill:#808080" />
	<circle
   cx="33"
   cy="24"
   r="1"
   fill="#666666"
   id="circle3868"
   style="fill:#808080" />
	<circle
   cx="27"
   cy="24"
   r="1"
   fill="#666666"
   id="circle3870"
   style="fill:#808080" />
	<circle
   cx="24"
   cy="22"
   r="1"
   fill="#666666"
   id="circle3872"
   style="fill:#808080" />
	<circle
   cx="36"
   cy="22"
   r="1"
   fill="#666666"
   id="circle3874"
   style="fill:#808080" />
	<circle
   cx="39"
   cy="20"
   r="1"
   fill="#666666"
   id="circle3876"
   style="fill:#808080" />
	<circle
   cx="21"
   cy="20"
   r="1"
   fill="#666666"
   id="circle3878"
   style="fill:#808080" />
	<circle
   cx="30"
   cy="22"
   r="1"
   fill="#666666"
   id="circle3880"
   style="fill:#808080" />
	<circle
   cx="30"
   cy="34"
   r="1"
   fill="#666666"
   id="circle3882"
   style="fill:#808080" />
	<circle
   cx="30"
   cy="37"
   r="1"
   fill="#666666"
   id="circle3884"
   style="fill:#808080" />
	<circle
   cx="30"
   cy="40"
   r="1"
   fill="#666666"
   id="circle3886"
   style="fill:#808080" />
	<circle
   cx="30"
   cy="43"
   r="1"
   fill="#666666"
   id="circle3888"
   style="fill:#808080" />
	<circle
   cx="30"
   cy="46"
   r="1"
   fill="#666666"
   id="circle3890"
   style="fill:#808080" />
	<circle
   cx="30"
   cy="49"
   r="1"
   fill="#666666"
   id="circle3892"
   style="fill:#808080" />
	<path
   d="M54,58h-3v-4h-5V43.778c0-2.7-1.342-5.208-3.589-6.706L31.803,30l10.608-7.072C44.658,21.43,46,18.922,46,16.222V6h5V2h3   c0.552,0,1-0.447,1-1s-0.448-1-1-1h-3h-1H10H9H6C5.448,0,5,0.447,5,1s0.448,1,1,1h3v4h5v10.222c0,2.7,1.342,5.208,3.589,6.706   L28.197,30l-10.608,7.072C15.342,38.57,14,41.078,14,43.778V54H9v4H6c-0.552,0-1,0.447-1,1s0.448,1,1,1h3h1h40h1h3   c0.552,0,1-0.447,1-1S54.552,58,54,58z M11,4V2h38v2h-3H14H11z M18.698,21.264C17.009,20.137,16,18.252,16,16.222V6h28v10.222   c0,2.03-1.009,3.915-2.698,5.042L30,28.798L18.698,21.264z M16,43.778c0-2.03,1.009-3.915,2.698-5.042L30,31.202l11.302,7.534   C42.991,39.863,44,41.748,44,43.778V54H16V43.778z M11,56h3h32h3v2H11V56z"
   fill="#666666"
   id="path3894"
   style="fill:#808080" />
</g>
<g
   id="g3898">
</g>
<g
   id="g3900">
</g>
<g
   id="g3902">
</g>
<g
   id="g3904">
</g>
<g
   id="g3906">
</g>
<g
   id="g3908">
</g>
<g
   id="g3910">
</g>
<g
   id="g3912">
</g>
<g
   id="g3914">
</g>
<g
   id="g3916">
</g>
<g
   id="g3918">
</g>
<g
   id="g3920">
</g>
<g
   id="g3922">
</g>
<g
   id="g3924">
</g>
<g
   id="g3926">
</g>
</svg>